<?xml version="1.0" standalone="no"?><!DOCTYPE svg PUBLIC "-//W3C//DTD SVG 1.1//EN" "http://www.w3.org/Graphics/SVG/1.1/DTD/svg11.dtd"><svg height="1358" node-id="1" sillyvg="true" template-height="1358" template-width="1024" version="1.1" viewBox="0 0 1024 1358" width="1024" xmlns="http://www.w3.org/2000/svg" xmlns:xlink="http://www.w3.org/1999/xlink"><defs node-id="72"></defs><path d="M 251.30 592.40 C 253.40 595.00 253.90 598.50 252.80 602.90 C 250.70 610.80 251.30 615.80 251.10 623.30 C 251.10 624.70 251.50 626.20 252.40 627.40 C 260.60 638.70 268.60 650.20 276.40 661.80 C 288.60 679.90 256.80 704.50 244.10 710.30 C 242.30 711.10 241.50 712.60 241.80 714.60 L 244.00 727.90 C 244.40 730.60 245.50 730.90 247.40 728.90 C 258.90 716.10 270.40 703.30 282.00 690.50 C 291.70 679.80 292.70 668.50 285.10 656.70 C 276.00 642.60 266.90 628.60 257.70 614.60 C 255.60 611.50 255.10 608.20 256.10 604.80 C 256.70 602.70 257.80 602.40 259.30 604.10 C 276.00 622.80 290.30 643.30 302.10 665.60 C 311.40 683.00 265.60 725.40 256.50 733.90 C 250.80 739.30 239.70 739.50 242.00 752.70 C 242.20 753.60 241.80 753.80 241.00 753.40 C 240.70 753.20 240.40 753.00 240.10 752.60 C 239.80 752.10 239.70 751.40 239.90 750.50 C 241.40 740.20 239.70 730.40 234.90 721.20 C 221.80 696.10 209.30 675.50 205.60 646.20 C 205.30 643.70 204.20 641.30 202.40 638.80 C 201.50 637.70 201.10 637.80 201.00 639.30 L 199.70 680.70 L 180.50 1038.00 C 180.40 1040.00 178.80 1041.50 176.90 1041.40 C 175.50 1041.40 174.30 1040.60 173.80 1039.30 C 167.90 1027.10 164.90 1016.30 165.40 1001.90 C 166.50 972.80 167.20 943.70 167.50 914.70 C 168.60 801.90 173.40 689.10 177.00 576.40 C 177.10 574.90 176.40 573.90 175.10 573.20 C 165.10 567.90 163.90 561.00 171.40 552.50 C 172.40 551.30 172.40 549.60 171.40 548.50 C 164.70 541.00 165.30 534.00 173.30 527.40 C 174.40 526.40 174.80 524.80 174.30 523.50 C 168.60 509.20 144.10 459.60 179.40 468.40 C 180.60 468.70 181.80 468.00 182.10 466.80 C 182.10 466.60 182.20 466.40 182.20 466.20 C 181.50 377.00 180.20 296.60 169.80 200.80 C 167.70 181.00 150.70 172.40 146.70 153.50 C 139.10 117.40 142.00 75.00 163.40 43.50 C 177.80 22.30 197.40 32.40 208.50 49.10 C 228.30 79.00 235.70 111.50 230.90 146.50 C 228.20 166.40 217.00 181.60 206.30 198.80 C 205.50 200.20 205.10 201.70 205.30 203.20 C 212.00 281.90 214.00 343.40 211.20 387.60 C 209.10 421.40 207.60 455.20 206.90 489.00 C 206.90 490.30 207.90 491.40 209.30 491.50 C 209.30 491.50 209.40 491.50 209.40 491.50 L 217.30 491.10 C 219.10 491.00 220.60 492.40 220.70 494.20 C 220.70 494.30 220.70 494.30 220.70 494.40 L 219.40 550.60 C 219.30 552.40 219.90 554.00 221.00 555.40 L 251.30 592.40 Z M 186.50 154.70 C 194.20 153.70 199.00 141.80 197.30 128.10 C 197.30 128.10 197.30 128.10 197.30 128.10 C 195.60 114.40 188.00 104.00 180.30 105.00 C 180.30 105.00 180.30 105.00 180.30 105.00 C 172.60 106.00 167.80 117.90 169.50 131.60 C 169.50 131.60 169.50 131.60 169.50 131.60 C 171.20 145.30 178.80 155.70 186.50 154.70 C 186.50 154.70 186.50 154.70 186.50 154.70 Z M 249.20 644.50 C 248.80 643.80 247.80 643.60 247.10 644.00 C 246.70 644.20 246.40 644.70 246.40 645.10 L 241.50 701.90 C 241.40 702.70 242.10 703.40 242.90 703.50 C 243.40 703.50 243.80 703.40 244.10 703.00 L 267.30 676.40 C 267.70 675.90 267.80 675.20 267.40 674.70 L 249.20 644.50 Z" fill="#000000" fill-rule="nonzero" node-id="76" stroke="none" target-height="1019.2" target-width="172.29999" target-x="139.1" target-y="22.3"></path><path d="M 564.50 226.20 C 544.60 177.90 490.10 97.70 427.10 129.00 C 393.60 145.60 366.10 175.40 344.60 218.10 C 351.60 164.90 377.10 117.90 424.10 91.40 C 477.70 61.20 528.40 123.60 547.30 166.10 C 555.90 185.10 561.60 205.10 564.50 226.20 Z" fill="#fd352c" fill-rule="nonzero" node-id="78" stroke="none" target-height="165" target-width="219.9" target-x="344.6" target-y="61.2"></path><g node-id="253"><path d="M 197.29 128.16 L 197.62 132.80 L 197.50 137.06 L 196.96 140.97 L 195.96 144.79 L 194.66 147.94 L 193.09 150.52 L 191.59 152.24 L 190.01 153.49 L 188.32 154.33 L 186.50 154.80 L 184.62 154.80 L 182.77 154.39 L 180.93 153.57 L 179.06 152.27 L 176.90 150.15 L 174.87 147.41 L 172.97 143.96 L 171.48 140.30 L 170.32 136.20 L 169.50 131.62 L 169.17 126.98 L 169.29 122.72 L 169.83 118.81 L 170.83 115.00 L 172.13 111.84 L 173.70 109.26 L 175.20 107.54 L 176.78 106.29 L 178.47 105.45 L 180.29 104.98 L 182.18 104.99 L 184.02 105.39 L 185.86 106.21 L 187.73 107.51 L 189.89 109.63 L 191.92 112.37 L 193.83 115.83 L 195.31 119.48 L 196.47 123.58 L 197.29 128.16 Z" fill="#fcdbd3" fill-rule="nonzero" group-id="1" node-id="82" stroke="none" target-height="49.81346" target-width="28.4478" target-x="169.17143" target-y="104.9843"></path></g><path d="M 564.50 226.20 C 568.20 257.70 562.90 289.70 548.70 322.10 C 529.60 350.60 503.30 379.10 469.60 407.60 C 442.60 430.40 431.20 415.50 409.60 394.90 C 387.30 373.70 369.10 349.70 354.90 322.90 C 347.90 297.20 343.60 280.10 342.10 271.50 C 338.60 251.50 339.50 233.70 344.60 218.10 C 366.10 175.30 393.50 145.60 427.10 129.00 C 490.20 97.70 544.60 177.90 564.50 226.20 Z M 405.70 291.30 C 414.10 290.60 419.90 277.50 418.70 262.10 L 418.70 262.10 C 417.50 246.60 409.70 234.60 401.30 235.20 C 392.90 235.90 387.10 249.00 388.30 264.40 C 388.30 264.40 388.30 264.40 388.30 264.40 C 389.50 280.00 397.30 292.00 405.70 291.30 Z M 497.60 293.10 C 505.20 293.60 512.10 282.30 513.20 267.80 C 513.20 267.80 513.20 267.80 513.20 267.80 C 514.20 253.30 509.00 241.10 501.40 240.50 L 501.40 240.50 C 493.80 240.00 486.90 251.30 485.80 265.80 C 484.80 280.40 490.10 292.60 497.60 293.10 Z" fill="#000000" fill-rule="nonzero" node-id="85" stroke="none" target-height="332.7" target-width="229.6" target-x="338.6" target-y="97.7"></path><path d="M 751.90 244.50 C 735.30 243.50 723.10 237.30 715.10 226.00 C 700.10 224.10 684.30 222.70 667.50 221.80 C 641.70 220.50 578.20 198.30 641.90 174.50 C 713.50 147.70 784.80 148.20 855.80 176.00 C 865.90 179.90 876.50 189.20 865.80 199.60 C 852.90 212.10 836.90 219.00 817.70 220.30 C 816.10 220.40 814.70 219.80 813.80 218.60 L 809.90 213.70 C 809.00 212.60 807.50 212.30 806.30 213.00 C 803.30 214.60 801.20 217.10 799.90 220.60 C 799.20 222.50 797.80 223.50 795.80 223.70 L 756.20 227.40 C 755.10 227.50 754.40 228.20 754.20 229.30 L 751.90 244.50 Z M 752.30 188.40 C 753.00 183.80 749.80 179.60 745.30 178.90 C 745.30 178.90 745.30 178.90 745.30 178.90 L 742.40 178.50 C 737.80 177.80 733.60 181.00 732.90 185.50 C 732.90 185.50 732.90 185.50 732.90 185.50 L 731.50 194.70 C 730.80 199.30 734.00 203.50 738.50 204.20 C 738.50 204.20 738.50 204.20 738.50 204.20 L 741.40 204.60 C 746.00 205.30 750.20 202.10 750.90 197.60 C 750.90 197.60 750.90 197.60 750.90 197.60 L 752.30 188.40 Z M 717.50 193.30 C 717.40 191.10 698.90 190.30 676.10 191.40 C 676.10 191.40 676.10 191.40 676.10 191.40 C 653.30 192.50 635.00 195.20 635.10 197.40 C 635.20 199.60 653.70 200.40 676.50 199.30 C 676.50 199.30 676.50 199.30 676.50 199.30 C 699.30 198.10 717.60 195.40 717.50 193.30 Z" fill="#fd352c" fill-rule="nonzero" node-id="87" stroke="none" target-height="96.8" target-width="298.3" target-x="578.2" target-y="147.7"></path><path d="M 742.40 178.50 L 745.30 178.90 C 749.90 179.60 753.00 183.80 752.30 188.40 L 750.90 197.60 C 750.20 202.20 746.00 205.30 741.40 204.60 L 738.50 204.20 C 733.90 203.50 730.80 199.30 731.50 194.70 L 732.90 185.50 C 733.60 181.00 737.90 177.80 742.40 178.50 Z" fill="#000000" fill-rule="nonzero" node-id="89" stroke="none" target-height="27.5" target-width="22.200012" target-x="730.8" target-y="177.8"></path><path d="M 717.55 193.28 L 717.34 193.69 L 716.49 194.23 L 714.38 194.96 L 710.91 195.75 L 705.60 196.63 L 699.74 197.38 L 692.53 198.10 L 684.94 198.70 L 676.49 199.20 L 668.03 199.53 L 660.42 199.67 L 653.17 199.65 L 647.26 199.48 L 641.90 199.12 L 638.36 198.68 L 636.19 198.16 L 635.29 197.71 L 635.05 197.32 L 635.25 196.91 L 636.10 196.37 L 638.21 195.64 L 641.69 194.85 L 646.99 193.97 L 652.86 193.22 L 660.06 192.50 L 667.65 191.90 L 676.11 191.40 L 684.57 191.07 L 692.18 190.93 L 699.42 190.95 L 705.33 191.12 L 710.70 191.48 L 714.23 191.93 L 716.40 192.44 L 717.30 192.89 L 717.55 193.28 Z" fill="#fcdbd3" fill-rule="nonzero" group-id="2" node-id="93" stroke="none" target-height="8.749023" target-width="82.500854" target-x="635.04614" target-y="190.9257"></path><path d="M 715.10 226.00 C 723.10 237.30 735.40 243.50 751.90 244.50 L 751.40 250.90 C 751.20 252.60 750.40 253.20 748.80 252.70 L 717.10 243.80 C 715.40 243.30 714.60 242.30 714.70 240.50 L 715.10 226.00 Z" fill="#140506" fill-rule="nonzero" node-id="96" stroke="none" target-height="27.199997" target-width="37.30005" target-x="714.6" target-y="226"></path><path d="M 418.65 262.10 L 418.79 267.31 L 418.46 272.06 L 417.69 276.40 L 416.43 280.63 L 414.87 284.08 L 413.05 286.88 L 411.34 288.73 L 409.56 290.04 L 407.69 290.89 L 405.70 291.31 L 403.66 291.20 L 401.69 290.66 L 399.73 289.64 L 397.75 288.08 L 395.51 285.60 L 393.43 282.44 L 391.52 278.46 L 390.09 274.29 L 389.02 269.65 L 388.34 264.49 L 388.20 259.28 L 388.53 254.53 L 389.30 250.18 L 390.56 245.96 L 392.12 242.51 L 393.94 239.71 L 395.65 237.86 L 397.43 236.55 L 399.30 235.70 L 401.29 235.28 L 403.33 235.38 L 405.30 235.93 L 407.26 236.94 L 409.24 238.50 L 411.48 240.98 L 413.56 244.15 L 415.47 248.13 L 416.90 252.29 L 417.97 256.93 L 418.65 262.10 Z" fill="#fcdbd3" fill-rule="nonzero" group-id="3" node-id="100" stroke="none" target-height="56.025803" target-width="30.59262" target-x="388.1988" target-y="235.28053"></path><path d="M 501.37 240.51 L 503.17 240.88 L 504.85 241.66 L 506.46 242.87 L 508.01 244.60 L 509.66 247.20 L 511.08 250.43 L 512.24 254.40 L 512.95 258.46 L 513.26 262.92 L 513.15 267.82 L 512.56 272.69 L 511.61 277.05 L 510.33 280.98 L 508.62 284.74 L 506.76 287.73 L 504.75 290.07 L 502.97 291.56 L 501.20 292.53 L 499.43 293.06 L 497.60 293.17 L 495.81 292.80 L 494.12 292.03 L 492.51 290.81 L 490.96 289.08 L 489.31 286.48 L 487.89 283.25 L 486.74 279.29 L 486.03 275.22 L 485.71 270.76 L 485.82 265.86 L 486.41 261.00 L 487.36 256.63 L 488.64 252.71 L 490.35 248.95 L 492.21 245.95 L 494.22 243.61 L 496.00 242.12 L 497.77 241.15 L 499.55 240.62 L 501.37 240.51 Z" fill="#fcdbd3" fill-rule="nonzero" group-id="4" node-id="105" stroke="none" target-height="52.66272" target-width="27.549927" target-x="485.7116" target-y="240.51013"></path><path d="M 748.10 352.00 C 748.40 341.40 756.50 334.40 747.90 323.30 C 747.10 322.30 746.00 321.90 744.80 322.20 C 721.30 327.70 729.50 354.30 746.50 354.80 L 742.30 373.90 C 730.00 374.90 716.50 364.00 702.80 362.10 L 702.60 348.90 C 702.60 347.30 701.80 346.60 700.20 346.60 C 685.70 346.90 671.40 345.80 657.20 343.20 C 643.60 340.80 566.60 315.80 619.80 293.50 C 651.10 280.30 679.30 273.40 704.30 272.60 C 712.90 284.80 724.50 292.60 739.00 296.00 C 740.70 296.40 741.70 295.70 741.90 294.00 L 743.40 282.90 C 745.70 284.50 746.90 285.30 747.00 285.30 C 750.10 285.10 752.40 282.40 752.20 279.30 C 752.00 276.90 750.30 274.80 747.90 274.20 L 715.90 265.80 C 714.00 265.30 712.70 263.60 712.80 261.60 L 713.00 255.20 C 713.00 254.00 714.00 253.00 715.20 253.10 C 715.50 253.10 715.80 253.20 716.10 253.30 C 724.90 257.60 733.90 261.20 743.00 264.20 C 749.70 266.50 753.30 271.50 762.80 271.70 C 791.70 272.60 861.10 282.50 880.00 307.00 C 880.90 308.20 881.00 309.70 880.30 311.00 C 869.10 330.60 830.70 345.10 814.80 345.20 C 813.70 345.20 812.70 344.80 811.90 343.90 L 807.40 339.00 C 806.50 338.00 805.00 337.90 803.90 338.70 L 789.50 349.40 C 789.00 349.80 788.30 350.00 787.70 350.00 L 748.10 352.00 Z M 706.40 312.90 L 701.10 308.90 C 699.60 307.80 697.80 307.20 695.90 307.40 L 621.70 311.60 C 620.40 311.70 619.40 312.80 619.40 314.20 C 619.40 314.60 619.60 315.00 619.80 315.40 C 620.90 317.20 622.20 317.70 623.60 317.20 C 624.30 316.90 625.10 316.80 625.90 316.80 C 656.10 318.80 686.40 319.00 716.60 317.30 C 722.40 317.00 725.70 314.40 726.50 309.50 C 726.80 307.70 725.60 306.10 723.90 305.80 C 723.20 305.70 722.40 305.80 721.70 306.20 L 709.90 313.20 C 708.80 313.70 707.40 313.60 706.40 312.90 Z" fill="#fd352c" fill-rule="nonzero" node-id="108" stroke="none" target-height="121.899994" target-width="314.40002" target-x="566.6" target-y="253"></path><path d="M 704.30 272.80 C 718.60 273.50 731.60 277.00 743.50 283.10 L 742.00 294.20 C 741.80 295.90 740.80 296.60 739.10 296.20 C 724.50 292.70 713.00 284.90 704.30 272.80 Z" fill="#d44244" fill-rule="nonzero" node-id="110" stroke="none" target-height="23.800018" target-width="39.200012" target-x="704.3" target-y="272.8"></path><path d="M 709.90 313.10 L 721.70 306.10 C 723.20 305.20 725.20 305.70 726.10 307.20 C 726.50 307.90 726.60 308.60 726.50 309.40 C 725.70 314.20 722.30 316.80 716.60 317.20 C 686.40 318.90 656.10 318.80 625.90 316.70 C 625.10 316.60 624.40 316.80 623.60 317.10 C 622.20 317.70 620.90 317.10 619.80 315.30 C 619.10 314.20 619.40 312.70 620.50 311.90 C 620.90 311.70 621.30 311.50 621.70 311.50 L 695.90 307.30 C 697.80 307.20 699.60 307.70 701.10 308.80 L 706.40 312.80 C 707.40 313.60 708.80 313.70 709.90 313.10 Z" fill="#fcdbd3" fill-rule="nonzero" node-id="112" stroke="none" target-height="13.699982" target-width="107.5" target-x="619.1" target-y="305.2"></path><path d="M 548.80 322.10 L 570.30 342.20 C 533.60 382.10 495.00 420.70 454.60 458.20 C 453.10 459.60 450.80 459.60 449.30 458.30 C 408.70 423.40 370.40 385.40 334.40 344.50 L 355.10 323.00 C 369.30 349.80 387.50 373.80 409.80 395.00 C 431.40 415.60 442.80 430.50 469.80 407.70 C 503.30 379.10 529.70 350.60 548.80 322.10 Z" fill="#fd352c" fill-rule="nonzero" node-id="114" stroke="none" target-height="137.5" target-width="235.9" target-x="334.4" target-y="322.1"></path><path d="M 748.10 352.00 C 748.10 352.70 747.50 353.70 746.50 354.80 C 729.50 354.30 721.30 327.80 744.80 322.20 C 746.10 321.90 747.10 322.30 747.90 323.30 C 756.50 334.50 748.40 341.40 748.10 352.00 Z" fill="#140506" fill-rule="nonzero" node-id="116" stroke="none" target-height="32.899994" target-width="35.200012" target-x="721.3" target-y="321.9"></path><path d="M 570.20 342.20 C 578.90 348.50 582.30 354.60 580.70 360.40 C 550.80 409.40 506.40 453.50 465.20 493.20 C 454.90 503.10 449.00 511.60 436.60 499.50 C 393.60 457.60 355.50 415.20 322.20 372.10 C 321.00 370.60 319.70 370.10 318.20 370.90 C 316.90 371.60 316.40 373.10 317.10 374.30 C 317.20 374.40 317.20 374.50 317.30 374.60 C 350.40 421.20 388.10 463.90 430.40 502.80 C 442.90 514.30 452.00 518.30 465.00 504.90 C 495.10 473.70 524.80 442.10 554.10 410.10 C 566.10 397.00 575.60 382.30 582.60 366.00 C 583.40 364.20 583.90 363.20 584.10 363.00 C 584.90 362.50 586.10 362.10 587.90 362.00 C 595.80 371.10 600.20 377.20 601.20 380.40 C 604.20 391.00 612.30 396.20 616.20 404.20 C 623.10 418.40 623.40 428.40 617.30 434.20 C 562.70 502.20 504.40 567.70 451.10 635.70 C 406.30 588.70 365.00 539.30 327.20 487.50 C 312.90 467.80 301.10 445.80 288.20 423.90 C 297.60 396.10 313.00 369.60 334.60 344.50 C 370.60 385.50 408.90 423.40 449.50 458.30 C 451.00 459.60 453.30 459.60 454.80 458.20 C 495.00 420.70 533.50 382.00 570.20 342.20 Z M 443.80 541.40 C 388.00 501.20 349.10 447.20 309.50 394.00 C 308.70 393.00 307.20 392.70 306.10 393.50 C 305.70 393.80 305.50 394.10 305.30 394.60 L 304.30 397.30 C 303.80 398.70 304.00 400.20 304.90 401.40 C 344.40 456.00 389.20 505.90 439.30 551.10 C 450.50 561.20 461.60 561.60 472.70 552.50 C 518.50 514.50 556.80 460.10 594.00 410.50 C 597.90 405.30 600.40 399.80 601.70 394.10 C 601.90 393.00 601.20 392.00 600.10 391.80 C 599.40 391.70 598.60 392.00 598.20 392.60 C 562.30 444.10 523.40 497.00 476.00 538.70 C 465.10 548.40 456.60 550.60 443.80 541.40 Z M 346.10 499.60 C 346.90 498.80 346.50 497.00 345.10 495.60 C 343.70 494.20 341.90 493.80 341.10 494.60 C 340.30 495.40 340.70 497.20 342.10 498.60 C 343.40 499.90 345.20 500.40 346.10 499.60 Z" fill="#000000" fill-rule="nonzero" node-id="118" stroke="none" target-height="293.5" target-width="335.2" target-x="288.2" target-y="342.2"></path><path d="M 580.70 360.30 L 587.70 362.00 C 585.90 362.20 584.70 362.50 583.90 363.00 C 583.70 363.20 583.20 364.10 582.40 366.00 C 575.40 382.30 565.90 397.00 553.90 410.10 C 524.60 442.10 494.90 473.60 464.80 504.90 C 451.80 518.30 442.70 514.20 430.20 502.80 C 387.90 463.90 350.20 421.20 317.10 374.60 C 316.30 373.50 316.60 371.90 317.70 371.00 C 317.80 370.90 317.90 370.90 318.00 370.80 C 319.50 370.10 320.80 370.50 322.00 372.00 C 355.30 415.10 393.40 457.50 436.40 499.40 C 448.90 511.60 454.80 503.00 465.00 493.10 C 506.40 453.50 550.80 409.30 580.70 360.30 Z" fill="#d44244" fill-rule="nonzero" node-id="120" stroke="none" target-height="158" target-width="271.40002" target-x="316.3" target-y="360.3"></path><path d="M 702.80 362.10 C 716.50 364.00 729.90 374.90 742.30 373.90 C 743.10 378.70 742.20 383.60 739.80 388.60 C 727.70 385.00 715.70 378.80 703.70 370.00 C 702.80 368.00 702.50 365.40 702.80 362.10 Z" fill="#000000" fill-rule="nonzero" node-id="122" stroke="none" target-height="26.5" target-width="40.599976" target-x="702.5" target-y="362.1"></path><path d="M 703.70 370.00 C 715.70 378.80 727.80 385.00 739.80 388.60 L 733.90 420.20 L 709.20 400.30 L 703.70 370.00 Z" fill="#fd352c" fill-rule="nonzero" node-id="124" stroke="none" target-height="50.200012" target-width="36.099976" target-x="703.7" target-y="370"></path><path d="M 309.50 394.00 C 349.00 447.20 388.00 501.20 443.70 541.50 C 456.50 550.70 465.00 548.40 476.00 538.80 C 523.40 497.10 562.30 444.10 598.20 392.70 C 598.80 391.80 600.10 391.60 600.90 392.30 C 601.50 392.70 601.80 393.50 601.70 394.20 C 600.40 400.00 597.90 405.50 594.00 410.60 C 556.80 460.10 518.50 514.50 472.70 552.60 C 461.70 561.70 450.50 561.30 439.30 551.20 C 389.10 506.00 344.30 456.10 304.90 401.50 C 304.00 400.30 303.80 398.80 304.30 397.40 L 305.30 394.70 C 305.70 393.50 307.10 392.90 308.40 393.30 C 308.90 393.30 309.30 393.60 309.50 394.00 Z" fill="#d44244" fill-rule="nonzero" node-id="126" stroke="none" target-height="170.1" target-width="298" target-x="303.8" target-y="391.6"></path><path d="M 709.30 400.30 L 734.00 420.20 C 732.10 423.30 731.30 426.00 731.60 428.10 C 731.80 429.80 732.70 430.30 734.30 429.70 C 745.30 425.50 752.90 431.60 750.40 443.20 C 747.60 456.20 743.20 468.50 737.10 480.30 C 736.40 481.70 736.40 483.10 737.10 484.40 L 743.90 497.40 C 744.30 498.20 744.30 499.10 743.90 499.90 L 739.80 508.80 C 739.20 510.00 739.20 511.30 739.80 512.40 C 743.90 520.60 743.30 528.40 737.90 535.80 L 720.30 537.60 C 718.60 537.80 717.70 538.70 717.50 540.40 C 712.90 580.90 705.20 629.90 684.10 665.40 C 683.30 666.60 681.70 667.00 680.50 666.30 C 679.80 665.90 679.40 665.20 679.30 664.50 L 665.00 556.80 C 664.90 555.70 663.90 555.00 662.90 555.20 C 662.30 555.30 661.80 555.60 661.50 556.10 L 587.10 673.20 C 586.00 674.90 584.50 675.70 582.60 675.70 L 577.00 675.70 C 573.70 675.70 571.10 673.00 571.10 669.80 C 571.10 668.40 571.60 667.00 572.60 665.90 C 581.50 655.90 589.90 645.80 597.90 635.60 C 612.20 617.50 625.60 593.60 641.50 573.60 C 650.20 562.60 655.00 550.70 655.80 537.70 C 655.90 536.60 655.00 535.80 654.00 535.70 C 653.30 535.70 652.60 536.10 652.20 536.70 C 647.70 545.50 642.50 553.50 636.70 560.70 C 613.90 588.90 590.80 616.90 567.70 644.80 C 566.10 646.80 563.90 647.40 561.10 646.70 C 559.70 646.30 559.40 645.60 560.20 644.40 C 585.30 610.50 611.40 577.40 638.60 545.20 C 645.40 537.20 648.00 527.20 653.90 517.90 L 662.90 545.30 C 663.40 546.90 664.20 547.10 665.30 545.70 C 672.90 535.80 680.20 525.90 687.00 515.80 C 697.40 500.50 691.60 464.00 689.80 445.80 C 689.60 444.40 690.10 443.20 691.20 442.30 C 696.00 438.30 700.90 438.30 706.00 442.20 C 707.30 443.20 709.20 443.00 710.20 441.70 C 710.70 441.10 710.90 440.40 710.80 439.70 L 709.30 400.30 Z" fill="#000000" fill-rule="nonzero" node-id="128" stroke="none" target-height="275.40002" target-width="193.5" target-x="559.4" target-y="400.3"></path><path d="M 287.90 423.80 C 300.80 445.80 312.60 467.80 326.90 487.40 C 364.70 539.20 406.00 588.60 450.80 635.60 L 413.70 689.20 C 409.20 682.50 403.90 677.20 397.70 673.40 C 394.60 671.40 390.40 672.30 388.40 675.50 C 386.90 677.80 387.00 680.80 388.60 683.00 L 404.40 705.30 C 403.00 704.80 402.10 706.20 401.60 709.40 L 379.20 686.60 C 378.30 685.70 376.80 685.60 375.90 686.50 C 375.80 686.60 375.70 686.70 375.60 686.90 C 344.10 734.10 313.60 779.20 275.20 820.00 C 269.00 826.60 266.10 834.20 266.50 842.80 C 266.60 844.90 265.00 846.60 262.90 846.70 C 261.80 846.70 260.80 846.30 260.00 845.50 C 254.90 839.90 248.30 835.90 240.40 833.70 L 242.80 802.80 C 242.90 801.00 242.20 799.60 240.60 798.70 L 219.80 787.30 C 218.30 786.50 217.00 785.30 216.10 783.80 C 201.00 759.30 201.00 706.40 199.60 680.60 L 200.90 639.20 C 200.90 637.70 201.40 637.60 202.30 638.70 C 204.10 641.20 205.20 643.60 205.50 646.10 C 209.10 675.50 221.70 696.00 234.80 721.10 C 239.60 730.40 241.30 740.10 239.80 750.40 C 239.60 751.30 239.70 752.00 240.00 752.50 C 240.20 752.90 240.50 753.10 240.90 753.30 C 241.70 753.70 242.00 753.50 241.90 752.60 C 239.60 739.40 250.70 739.20 256.40 733.80 C 265.50 725.30 311.30 682.90 302.00 665.50 C 290.20 643.20 275.90 622.70 259.20 604.00 C 257.70 602.30 256.70 602.60 256.00 604.70 C 255.00 608.10 255.60 611.30 257.60 614.50 C 266.80 628.50 275.90 642.50 285.00 656.60 C 292.60 668.40 291.50 679.60 281.90 690.40 C 270.30 703.20 258.80 716.00 247.30 728.80 C 245.50 730.80 244.40 730.50 243.90 727.80 L 241.70 714.50 C 241.40 712.50 242.20 711.10 244.00 710.20 C 256.70 704.40 288.40 679.80 276.30 661.70 C 268.50 650.10 260.50 638.60 252.30 627.30 C 251.40 626.10 251.00 624.70 251.00 623.20 C 251.20 615.70 250.60 610.70 252.70 602.80 C 253.90 598.40 253.40 594.90 251.20 592.30 L 262.40 524.60 C 272.60 544.80 283.80 562.80 295.90 578.60 C 297.40 580.40 299.20 580.90 301.30 580.10 C 302.80 579.50 303.60 577.80 303.00 576.20 C 303.00 576.10 302.90 576.00 302.80 575.90 L 265.50 505.90 L 268.30 487.20 C 270.70 489.60 273.60 495.20 277.10 504.20 C 284.10 522.20 296.00 542.40 313.00 564.80 C 315.20 567.70 317.60 569.20 320.30 569.10 C 322.60 569.10 323.10 568.10 321.80 566.20 C 301.30 535.90 286.00 514.50 275.00 474.30 C 274.60 473.60 275.60 472.00 277.90 469.70 C 287.40 492.90 299.40 514.40 314.00 534.20 C 317.00 538.30 320.40 540.70 324.30 541.50 C 326.00 541.80 327.70 540.70 328.00 539.00 C 328.20 538.20 328.00 537.30 327.50 536.70 C 309.40 508.70 289.70 482.10 281.80 448.20 L 287.90 423.80 Z M 326.90 667.10 C 321.80 656.30 282.20 594.30 264.80 588.60 C 263.60 588.20 262.30 588.90 261.90 590.10 C 261.70 590.80 261.80 591.70 262.30 592.30 C 278.10 612.50 292.90 633.20 306.90 654.30 C 320.50 675.00 310.30 686.50 296.40 705.60 C 280.80 726.90 250.20 754.60 244.00 777.50 C 243.70 778.50 244.30 779.50 245.30 779.80 C 245.70 779.90 246.10 779.90 246.40 779.70 C 265.30 772.80 302.90 718.90 315.70 701.20 C 323.20 690.80 332.90 679.80 326.90 667.10 Z M 342.30 621.30 C 344.40 619.50 343.00 614.50 339.20 610.20 C 335.40 605.80 330.70 603.70 328.70 605.40 C 326.60 607.20 328.00 612.20 331.80 616.50 C 335.50 620.90 340.20 623.00 342.30 621.30 Z M 331.20 643.60 C 333.20 645.40 334.70 647.70 335.60 650.20 L 343.70 672.90 C 344.20 674.30 344.20 675.60 343.50 676.90 C 321.80 721.50 292.90 760.70 256.70 794.70 C 249.30 801.70 248.30 809.20 253.90 817.10 C 254.60 818.10 255.50 818.20 256.50 817.50 C 301.30 781.10 334.40 730.40 364.20 681.60 C 366.30 678.10 366.00 673.60 363.40 670.40 L 343.40 646.10 C 342.80 645.40 342.10 645.00 341.20 644.90 L 340.10 644.80 C 338.70 644.60 337.60 644.00 336.80 642.80 L 319.10 618.00 C 318.40 616.90 317.00 616.60 315.80 617.30 C 314.80 617.90 314.40 619.20 314.90 620.30 C 318.70 629.30 324.10 637.00 331.20 643.60 Z M 378.40 661.00 C 381.80 658.20 380.70 651.10 375.90 645.20 L 375.90 645.20 C 371.10 639.30 364.40 636.70 360.90 639.50 C 357.50 642.30 358.60 649.40 363.40 655.30 C 368.30 661.30 375.00 663.80 378.40 661.00 Z" fill="#fd352c" fill-rule="nonzero" node-id="130" stroke="none" target-height="422.90002" target-width="251.19998" target-x="199.6" target-y="423.8"></path><path d="M 617.10 434.20 C 620.50 443.40 625.00 447.50 630.70 446.50 C 588.50 500.50 540.70 554.10 502.00 606.80 C 451.00 676.20 402.00 747.10 354.90 819.30 C 348.90 828.50 340.00 837.00 332.90 847.80 C 329.70 852.70 327.80 852.20 327.30 846.40 C 324.70 816.90 379.80 746.60 397.00 723.00 C 400.70 717.90 402.20 713.50 401.60 709.60 C 402.10 706.40 403.00 705.00 404.40 705.50 C 410.60 703.80 413.70 698.40 413.70 689.40 L 450.80 635.80 C 504.20 567.70 562.50 502.30 617.10 434.20 Z" fill="#fcdbd3" fill-rule="nonzero" node-id="132" stroke="none" target-height="418.5" target-width="306" target-x="324.7" target-y="434.2"></path><path d="M 630.70 446.50 C 634.40 451.10 636.10 456.40 635.60 462.40 C 632.50 461.90 630.00 463.20 628.00 466.10 C 622.20 474.80 615.90 483.20 609.20 491.40 C 607.80 493.20 608.20 494.00 610.50 493.80 C 612.80 493.60 614.70 492.50 616.20 490.40 C 622.50 481.80 628.80 473.10 635.40 464.30 C 640.50 469.90 640.10 476.40 634.40 483.80 C 561.40 567.30 492.80 654.30 428.60 744.90 C 399.60 785.80 373.60 835.90 339.50 874.20 C 330.20 884.70 331.10 892.40 337.00 904.20 L 342.40 939.10 C 342.80 941.30 343.60 941.50 344.90 939.70 C 368.20 908.00 394.10 878.80 415.50 846.10 C 451.30 791.50 489.30 738.80 529.60 687.90 C 530.00 687.20 531.00 686.90 531.70 687.30 C 532.40 687.70 532.70 688.70 532.30 689.40 C 527.10 703.00 515.60 714.80 509.80 723.30 C 485.10 759.50 459.10 792.60 434.60 830.70 C 412.10 865.60 387.60 898.90 361.10 930.80 C 354.70 938.50 350.30 946.20 348.10 953.80 C 344.80 964.80 347.10 966.10 354.90 957.70 L 411.60 896.20 C 412.70 895.00 413.30 895.20 413.50 896.80 C 413.60 897.60 413.50 898.30 413.10 898.90 C 394.90 925.40 371.40 947.30 354.20 974.00 C 353.40 975.20 353.10 976.60 353.20 978.00 C 355.60 1003.70 360.70 1028.40 368.50 1052.00 C 364.20 1114.30 361.50 1176.40 360.30 1238.30 C 359.70 1271.20 358.40 1297.70 356.50 1317.70 C 356.00 1323.70 352.50 1327.00 346.10 1327.50 C 310.40 1330.70 276.10 1331.00 241.80 1319.70 C 239.90 1319.10 238.90 1317.10 239.50 1315.20 C 239.70 1314.70 239.90 1314.30 240.30 1313.90 C 255.00 1298.10 269.90 1293.80 287.80 1282.90 C 289.10 1282.10 290.00 1280.60 289.90 1279.00 L 287.80 1165.90 C 287.80 1164.40 287.00 1163.90 285.60 1164.30 C 272.50 1167.80 259.30 1168.40 245.90 1166.10 C 244.50 1165.90 243.30 1164.70 243.10 1163.30 L 240.40 1147.90 C 240.10 1146.20 240.80 1145.50 242.50 1145.60 C 271.10 1147.40 299.60 1147.00 328.10 1144.30 C 330.90 1144.00 333.00 1141.60 332.70 1138.80 L 319.30 971.70 C 321.20 966.70 321.00 960.60 318.60 953.50 C 319.70 934.10 319.40 919.70 317.80 910.30 C 313.60 886.10 266.80 879.30 246.60 876.20 C 244.40 875.90 242.40 877.40 242.10 879.50 C 242.10 879.80 242.00 880.20 242.10 880.50 L 243.30 891.30 C 243.50 892.50 244.10 893.30 245.20 893.70 C 255.30 897.50 262.10 899.50 265.70 900.00 C 283.30 902.30 304.70 901.20 305.20 924.00 C 306.60 992.20 312.70 1059.80 314.80 1128.00 C 314.90 1130.10 313.90 1131.10 311.80 1131.10 L 242.20 1132.60 C 240.20 1132.60 239.10 1131.60 239.10 1129.60 L 238.80 1104.90 C 238.80 1103.20 239.60 1102.40 241.30 1102.40 L 290.40 1103.50 C 292.20 1103.50 293.20 1102.60 293.10 1100.80 C 292.70 1048.70 289.80 993.80 284.20 936.10 C 282.60 919.00 261.30 919.50 248.30 917.50 C 246.80 917.30 245.30 917.40 243.80 917.90 C 243.00 918.10 242.20 918.30 241.30 918.30 C 239.80 918.30 238.60 917.00 238.60 915.50 L 240.40 833.50 C 248.30 835.70 254.80 839.70 260.00 845.30 C 261.40 846.80 263.80 846.90 265.30 845.50 C 266.10 844.80 266.50 843.70 266.50 842.60 C 266.00 834.00 268.90 826.40 275.20 819.80 C 313.60 779.00 344.10 733.90 375.60 686.70 C 376.30 685.60 377.70 685.30 378.80 686.10 C 378.90 686.20 379.10 686.30 379.20 686.40 L 401.60 709.20 C 402.20 713.10 400.70 717.60 397.00 722.60 C 379.80 746.20 324.70 816.50 327.30 846.00 C 327.80 851.80 329.70 852.30 332.90 847.40 C 339.90 836.60 348.90 828.10 354.90 818.90 C 402.00 747.10 451.00 676.20 502.10 606.80 C 540.80 554.10 588.50 500.50 630.70 446.50 Z M 594.90 511.80 C 593.30 513.10 592.00 514.70 591.00 516.50 C 590.70 517.00 590.80 517.40 591.50 517.60 C 591.90 517.70 592.30 517.90 592.70 518.00 C 593.10 518.10 593.50 518.00 593.80 517.70 L 604.60 505.80 C 604.90 505.50 604.90 504.90 604.50 504.60 C 604.40 504.50 604.20 504.40 604.00 504.40 C 601.00 504.10 598.70 505.50 597.20 508.60 C 596.70 509.90 595.90 511.00 594.90 511.80 Z M 566.50 549.20 C 568.50 550.60 574.10 546.10 578.90 539.20 C 583.70 532.30 585.90 525.50 583.90 524.10 C 581.90 522.70 576.30 527.20 571.50 534.10 L 571.50 534.10 C 566.70 541.00 564.40 547.70 566.50 549.20 Z M 564.20 557.60 C 564.60 557.10 564.60 556.40 564.10 555.90 L 558.40 550.90 C 557.90 550.50 557.20 550.50 556.70 551.00 L 530.20 581.10 C 529.80 581.60 529.80 582.30 530.30 582.80 L 536.00 587.80 C 536.50 588.20 537.20 588.20 537.70 587.70 L 564.20 557.60 Z M 523.60 590.10 C 518.80 602.10 506.40 611.80 500.60 626.60 C 500.00 628.10 499.00 629.40 497.70 630.30 C 490.60 635.50 485.40 642.20 482.10 650.50 C 481.50 652.00 482.30 653.60 483.70 654.10 C 484.90 654.50 486.20 654.20 486.90 653.20 L 531.50 595.00 C 532.50 593.60 532.40 591.70 531.20 590.60 C 527.60 586.80 525.00 586.60 523.60 590.10 Z M 441.30 708.90 C 443.40 710.50 453.60 700.30 464.20 686.20 C 464.20 686.20 464.20 686.20 464.20 686.20 C 474.80 672.10 481.70 659.40 479.60 657.90 C 477.50 656.30 467.30 666.50 456.70 680.60 C 456.70 680.60 456.70 680.60 456.70 680.60 C 446.20 694.70 439.30 707.40 441.30 708.90 Z M 436.00 725.50 C 438.00 724.90 439.00 721.90 438.10 718.60 C 437.20 715.40 434.80 713.20 432.80 713.70 C 430.80 714.30 429.80 717.30 430.70 720.60 C 431.60 723.90 434.00 726.00 436.00 725.50 Z M 429.30 738.10 C 429.70 737.50 429.50 736.80 429.00 736.40 C 429.00 736.40 429.00 736.40 429.00 736.40 L 423.80 732.80 C 423.20 732.40 422.50 732.60 422.10 733.10 L 368.80 810.40 C 368.40 811.00 368.60 811.70 369.10 812.10 C 369.10 812.10 369.10 812.10 369.10 812.10 L 374.30 815.70 C 374.90 816.10 375.60 815.90 376.00 815.40 L 429.30 738.10 Z M 365.80 829.90 C 366.40 828.90 366.10 827.60 365.20 827.00 C 365.20 827.00 365.20 827.00 365.20 827.00 L 361.20 824.40 C 360.20 823.80 358.90 824.10 358.30 825.00 L 358.30 825.00 L 348.50 840.20 C 347.90 841.20 348.20 842.50 349.10 843.10 L 349.10 843.10 L 353.10 845.70 C 354.10 846.30 355.40 846.00 356.00 845.10 L 365.80 829.90 Z M 295.40 859.40 L 312.50 865.20 C 314.10 865.70 314.70 865.20 314.10 863.60 C 310.80 853.70 309.30 843.20 309.60 832.20 C 309.70 828.40 306.70 825.20 302.80 825.10 C 300.10 825.00 297.60 826.50 296.40 829.00 C 292.30 837.20 290.90 846.00 292.10 855.50 C 292.40 857.40 293.50 858.80 295.40 859.40 Z M 351.30 848.80 L 344.50 843.90 C 343.40 843.10 341.90 843.30 341.10 844.40 C 341.10 844.40 341.10 844.40 341.10 844.40 L 340.80 844.80 C 330.60 859.10 324.10 871.90 326.10 873.40 L 329.20 875.60 C 331.30 877.10 341.30 866.70 351.50 852.40 L 351.80 852.00 C 352.70 851.10 352.40 849.60 351.30 848.80 Z" fill="#000000" fill-rule="nonzero" node-id="134" stroke="none" target-height="884.5" target-width="401.9" target-x="238.6" target-y="446.5"></path><path d="M 281.90 448.30 C 289.80 482.10 309.50 508.70 327.60 536.80 C 328.60 538.30 328.10 540.20 326.70 541.20 C 326.00 541.70 325.20 541.80 324.40 541.70 C 320.60 540.90 317.10 538.50 314.10 534.40 C 299.50 514.60 287.50 493.10 278.00 469.90 C 275.50 464.90 276.80 457.80 281.90 448.30 Z" fill="#000000" fill-rule="nonzero" node-id="136" stroke="none" target-height="93.5" target-width="53.100006" target-x="275.5" target-y="448.3"></path><path d="M 635.70 462.40 C 635.90 463.20 635.80 463.90 635.40 464.40 C 628.90 473.20 622.50 481.90 616.20 490.50 C 614.70 492.60 612.80 493.70 610.50 493.90 C 608.20 494.10 607.80 493.30 609.20 491.50 C 615.90 483.30 622.20 474.80 628.00 466.20 C 630.10 463.20 632.60 461.90 635.70 462.40 Z" fill="#fcdbd3" fill-rule="nonzero" node-id="138" stroke="none" target-height="32.200012" target-width="28.100037" target-x="607.8" target-y="461.9"></path><path d="M 275.10 474.40 C 286.10 514.60 301.50 536.00 321.90 566.30 C 323.20 568.20 322.70 569.20 320.40 569.20 C 317.80 569.30 315.30 567.80 313.10 564.90 C 296.20 542.50 284.20 522.30 277.20 504.30 C 273.70 495.40 270.80 489.70 268.40 487.30 C 269.70 482.60 271.90 478.40 275.10 474.40 Z" fill="#000000" fill-rule="nonzero" node-id="140" stroke="none" target-height="94.899994" target-width="54.80002" target-x="268.4" target-y="474.4"></path><path d="M 634.40 483.90 C 640.00 487.50 644.20 492.30 647.20 498.10 C 635.00 515.00 622.20 531.60 608.80 547.80 C 564.50 600.90 524.00 657.10 481.00 711.40 C 462.30 735.00 444.10 759.10 426.30 783.90 C 397.30 824.20 367.50 864.30 337.10 904.30 C 331.20 892.60 330.20 884.90 339.60 874.30 C 373.70 836.00 399.60 785.90 428.70 745.00 C 492.90 654.40 561.50 567.40 634.40 483.90 Z" fill="#fcdbd3" fill-rule="nonzero" node-id="142" stroke="none" target-height="420.4" target-width="317" target-x="330.2" target-y="483.9"></path><path d="M 345.04 495.51 L 345.90 496.62 L 346.35 497.69 L 346.40 498.72 L 346.03 499.47 L 345.28 499.84 L 344.25 499.79 L 343.18 499.34 L 342.07 498.48 L 341.20 497.36 L 340.75 496.29 L 340.70 495.26 L 341.08 494.52 L 341.82 494.14 L 342.85 494.19 L 343.92 494.64 L 345.04 495.51 Z" fill="#140506" fill-rule="nonzero" group-id="5" node-id="146" stroke="none" target-height="5.7048035" target-width="5.704712" target-x="340.6981" target-y="494.13828"></path><path d="M 647.20 498.10 L 653.90 518.20 C 648.00 527.50 645.40 537.40 638.60 545.50 C 611.40 577.70 585.30 610.70 560.20 644.70 C 559.40 645.80 559.60 646.60 561.10 647.00 C 563.90 647.70 566.00 647.10 567.70 645.10 C 590.90 617.20 613.90 589.20 636.70 561.00 C 642.50 553.80 647.70 545.80 652.20 537.00 C 652.70 536.10 653.80 535.70 654.80 536.20 C 655.50 536.50 655.80 537.20 655.80 538.00 C 655.00 550.90 650.30 562.90 641.50 573.90 C 625.60 593.90 612.20 617.70 597.90 635.90 C 589.90 646.00 581.40 656.10 572.60 666.20 C 570.40 668.60 570.70 672.40 573.10 674.50 C 574.20 675.40 575.60 676.00 577.00 676.00 L 582.70 676.00 C 584.70 676.00 586.20 675.20 587.20 673.50 L 661.60 556.40 C 662.20 555.50 663.40 555.20 664.30 555.80 C 664.80 556.10 665.10 556.60 665.20 557.20 L 679.50 664.90 C 679.70 666.30 681.00 667.30 682.50 667.10 C 683.30 667.00 683.90 666.50 684.40 665.90 C 705.50 630.40 713.10 581.40 717.80 540.90 C 718.00 539.20 718.90 538.30 720.60 538.10 L 738.20 536.30 C 745.10 589.10 750.00 655.20 737.00 706.80 C 730.90 731.00 720.90 777.50 695.70 791.00 C 690.60 791.00 685.50 789.70 680.40 787.00 C 678.70 786.10 677.80 784.70 677.40 782.80 L 673.50 756.80 C 673.40 756.10 672.80 755.70 672.10 755.80 C 671.90 755.80 671.60 755.90 671.40 756.10 C 663.00 763.70 657.60 772.00 655.20 781.10 C 651.90 781.20 649.20 783.60 647.20 788.30 L 625.50 810.80 C 619.50 814.10 615.10 818.70 612.10 824.60 L 583.10 855.50 C 580.40 854.70 577.70 857.30 575.00 863.40 C 566.40 867.20 558.90 866.60 552.70 861.40 C 551.50 860.40 549.80 860.60 548.80 861.80 C 548.50 862.20 548.30 862.60 548.20 863.10 L 544.30 888.50 C 544.20 889.50 543.50 890.30 542.60 890.70 C 530.60 896.00 519.70 903.00 509.90 911.70 C 508.90 912.60 508.20 913.90 508.10 915.30 C 506.00 935.20 488.80 946.00 472.80 955.10 C 471.50 955.80 470.70 957.20 470.70 958.60 L 470.00 978.00 C 462.60 987.80 453.50 996.00 442.90 1002.70 C 441.60 1003.50 440.20 1004.00 438.60 1004.20 C 433.30 1004.60 428.90 1002.90 425.30 999.00 C 424.50 998.20 423.20 998.10 422.40 998.90 C 422.00 999.20 421.80 999.70 421.80 1000.20 L 420.00 1018.20 C 419.90 1018.80 419.70 1019.30 419.40 1019.70 C 414.00 1027.00 407.60 1032.00 402.50 1039.60 C 392.50 1054.40 381.40 1058.70 369.10 1052.60 C 361.30 1029.00 356.20 1004.30 353.80 978.60 C 353.60 977.10 354.00 975.80 354.80 974.60 C 372.00 947.90 395.50 926.00 413.70 899.50 C 414.10 899.00 414.20 898.30 414.10 897.40 C 413.90 895.80 413.30 895.60 412.20 896.80 L 355.50 958.30 C 347.70 966.80 345.40 965.50 348.70 954.40 C 350.90 946.80 355.30 939.20 361.70 931.40 C 388.30 899.50 412.80 866.10 435.20 831.30 C 459.70 793.20 485.70 760.00 510.40 723.90 C 516.20 715.40 527.70 703.60 532.90 690.00 C 533.30 689.30 533.10 688.30 532.30 687.90 C 531.60 687.50 530.60 687.70 530.20 688.50 C 490.00 739.40 452.00 792.10 416.10 846.70 C 394.70 879.40 368.80 908.60 345.50 940.30 C 344.20 942.10 343.40 941.90 343.00 939.70 L 337.60 904.80 C 368.00 864.80 397.80 824.70 426.80 784.40 C 444.60 759.70 462.90 735.50 481.50 711.90 C 524.40 657.60 565.00 601.50 609.20 548.30 C 622.20 531.60 635.00 515.00 647.20 498.10 Z M 614.00 668.20 C 609.80 672.00 607.00 675.70 605.40 679.50 C 604.80 680.90 605.20 682.60 606.40 683.70 C 611.00 687.70 615.30 687.20 619.30 682.20 C 625.30 674.80 626.30 667.90 622.40 661.50 C 631.30 653.50 643.70 646.60 640.00 632.30 C 638.90 628.10 634.60 625.60 630.40 626.70 C 629.50 626.90 628.70 627.30 628.00 627.80 C 616.80 635.50 608.00 645.70 601.50 658.20 C 600.70 659.80 600.80 661.30 601.80 662.70 C 603.80 665.70 607.90 667.60 614.00 668.20 Z M 554.60 654.70 C 547.90 659.50 542.30 667.70 536.40 673.50 C 534.60 675.30 534.60 678.20 536.30 680.00 C 537.20 680.90 538.30 681.40 539.60 681.40 L 541.70 681.40 C 543.20 681.40 544.60 680.30 544.90 678.80 C 546.70 670.90 550.60 664.20 556.60 658.80 C 557.60 657.90 557.70 656.30 556.90 655.30 C 556.20 654.30 555.40 654.10 554.60 654.70 Z M 569.50 726.10 C 573.10 728.20 578.80 725.10 582.30 719.20 C 585.80 713.30 585.80 706.70 582.30 704.60 C 578.70 702.50 573.00 705.60 569.50 711.50 C 565.90 717.50 565.90 724.00 569.50 726.10 L 569.50 726.10 Z M 491.60 823.10 L 514.40 842.40 C 517.00 844.60 520.80 844.50 523.30 842.40 C 538.90 829.00 552.00 813.50 562.70 795.80 C 563.40 794.60 563.40 793.40 562.70 792.20 C 553.60 777.50 542.00 764.90 528.00 754.40 C 523.70 751.20 519.90 751.60 516.50 755.80 C 492.50 784.70 470.30 814.90 449.80 846.50 C 447.80 849.70 448.70 853.90 451.80 855.90 C 453.30 856.80 455.00 857.20 456.70 856.90 C 470.00 854.40 478.90 834.40 486.10 824.00 C 487.30 822.30 489.60 821.90 491.20 823.00 C 491.40 822.90 491.50 823.00 491.60 823.10 Z M 583.30 779.40 C 587.30 782.80 594.10 781.40 598.50 776.30 C 603.00 771.10 603.40 764.20 599.40 760.80 C 595.40 757.40 588.60 758.80 584.20 763.90 C 579.70 769.00 579.30 776.00 583.30 779.40 Z M 514.60 884.60 L 507.90 887.30 C 506.80 887.80 506.30 889.00 506.80 890.10 C 506.80 890.10 506.80 890.10 506.80 890.10 L 507.10 890.80 C 509.40 896.50 513.40 900.20 516.10 899.10 L 517.10 898.70 C 519.70 897.60 520.00 892.10 517.60 886.50 L 517.30 885.80 C 516.90 884.70 515.70 884.10 514.60 884.60 Z M 469.00 902.70 C 469.60 899.80 466.50 896.60 461.90 895.70 C 457.40 894.70 453.20 896.30 452.60 899.30 C 452.60 899.30 452.60 899.30 452.60 899.30 C 452.00 902.20 455.10 905.40 459.70 906.30 C 464.20 907.30 468.40 905.70 469.00 902.70 L 469.00 902.70 Z M 455.50 920.20 C 455.40 917.40 451.70 915.40 447.20 915.50 C 447.20 915.50 447.20 915.50 447.20 915.50 C 442.70 915.70 439.20 918.00 439.30 920.80 C 439.30 920.80 439.30 920.80 439.30 920.80 C 439.40 923.60 443.10 925.60 447.60 925.50 C 447.60 925.50 447.60 925.50 447.60 925.50 C 452.10 925.40 455.60 923.00 455.50 920.20 L 455.50 920.20 Z M 429.20 952.40 C 431.50 953.00 434.10 951.00 435.00 947.90 C 435.80 944.80 434.60 941.80 432.30 941.10 L 432.30 941.10 C 430.00 940.50 427.40 942.50 426.50 945.60 C 425.70 948.70 426.90 951.70 429.20 952.40 C 429.20 952.40 429.20 952.40 429.20 952.40 Z M 414.90 959.50 L 393.30 1003.00 C 393.10 1003.50 393.30 1004.00 393.80 1004.30 C 393.80 1004.30 393.90 1004.30 393.90 1004.30 C 394.40 1004.40 394.80 1004.60 395.30 1004.80 C 396.60 1005.30 397.60 1004.90 398.30 1003.80 C 404.80 993.00 412.10 982.70 420.10 973.10 C 424.50 967.90 426.10 960.50 418.00 958.20 C 416.80 957.80 415.50 958.40 414.90 959.50 Z" fill="#fd352c" fill-rule="nonzero" node-id="149" stroke="none" target-height="560.6" target-width="412.4" target-x="337.6" target-y="498.1"></path><path d="M 597.30 508.70 C 598.80 505.60 601.00 504.30 604.10 504.50 C 604.50 504.50 604.90 504.90 604.90 505.40 C 604.90 505.60 604.80 505.80 604.70 505.90 L 593.90 517.80 C 593.60 518.10 593.10 518.20 592.80 518.10 C 592.40 517.90 592.00 517.80 591.60 517.70 C 591.00 517.50 590.80 517.20 591.10 516.60 C 592.10 514.80 593.40 513.30 595.00 511.90 C 595.90 511.00 596.70 509.90 597.30 508.70 Z" fill="#fd352c" fill-rule="nonzero" node-id="151" stroke="none" target-height="13.900024" target-width="14.100037" target-x="590.8" target-y="504.3"></path><path d="M 265.60 506.10 L 302.90 576.10 C 303.70 577.50 303.10 579.30 301.70 580.10 C 301.60 580.20 301.50 580.20 301.40 580.30 C 299.30 581.10 297.50 580.60 296.00 578.80 C 283.90 563.00 272.70 545.00 262.50 524.80 C 261.20 518.40 262.30 512.20 265.60 506.10 Z" fill="#000000" fill-rule="nonzero" node-id="153" stroke="none" target-height="74.99997" target-width="42.5" target-x="261.2" target-y="506.1"></path><path d="M 583.81 524.12 L 584.29 524.71 L 584.55 525.65 L 584.49 527.12 L 583.94 529.44 L 582.72 532.52 L 581.07 535.68 L 578.85 539.18 L 576.36 542.49 L 573.98 545.14 L 571.53 547.37 L 569.55 548.70 L 568.19 549.27 L 567.22 549.36 L 566.50 549.12 L 566.02 548.53 L 565.76 547.59 L 565.81 546.12 L 566.37 543.80 L 567.59 540.71 L 569.24 537.56 L 571.45 534.06 L 573.95 530.75 L 576.33 528.10 L 578.78 525.87 L 580.76 524.54 L 582.12 523.97 L 583.09 523.88 L 583.81 524.12 Z" fill="#fcdbd3" fill-rule="nonzero" group-id="6" node-id="157" stroke="none" target-height="25.485352" target-width="18.786133" target-x="565.7606" target-y="523.87646"></path><path d="M 558.40 550.90 L 564.10 555.90 C 564.60 556.30 564.60 557.10 564.20 557.60 L 537.70 587.70 C 537.30 588.20 536.50 588.20 536.00 587.80 L 530.30 582.80 C 529.80 582.40 529.80 581.60 530.20 581.10 L 556.70 551.00 C 557.20 550.50 557.90 550.50 558.40 550.90 Z" fill="#fcdbd3" fill-rule="nonzero" node-id="160" stroke="none" target-height="37.700012" target-width="34.799988" target-x="529.8" target-y="550.5"></path><path d="M 523.60 590.10 C 525.00 586.60 527.60 586.70 531.40 590.50 C 532.60 591.70 532.70 593.60 531.70 594.90 L 487.00 653.20 C 486.10 654.40 484.30 654.70 483.10 653.70 C 482.10 652.90 481.70 651.60 482.20 650.50 C 485.40 642.30 490.60 635.60 497.80 630.30 C 499.10 629.40 500.10 628.10 500.70 626.60 C 506.40 611.90 518.80 602.20 523.60 590.10 Z" fill="#fcdbd3" fill-rule="nonzero" node-id="162" stroke="none" target-height="68.10004" target-width="51" target-x="481.7" target-y="586.6"></path><path d="M 264.80 588.60 C 282.20 594.30 321.80 656.40 326.90 667.10 C 332.90 679.80 323.20 690.70 315.60 701.20 C 302.80 718.90 265.10 772.80 246.30 779.70 C 245.30 780.10 244.30 779.60 243.90 778.60 C 243.80 778.20 243.70 777.80 243.80 777.50 C 250.00 754.50 280.60 726.90 296.20 705.60 C 310.20 686.50 320.30 675.00 306.70 654.30 C 292.80 633.10 277.90 612.40 262.10 592.30 C 261.30 591.30 261.50 589.80 262.50 589.00 C 263.20 588.50 264.00 588.30 264.80 588.60 Z" fill="#000000" fill-rule="nonzero" node-id="164" stroke="none" target-height="191.79999" target-width="89.2" target-x="243.7" target-y="588.3"></path><path d="M 339.14 610.15 L 340.86 612.44 L 342.08 614.61 L 342.91 616.81 L 343.20 618.62 L 343.11 619.76 L 342.79 620.64 L 342.25 621.32 L 341.50 621.75 L 340.59 621.93 L 339.44 621.84 L 337.70 621.27 L 335.66 620.12 L 333.69 618.58 L 331.70 616.53 L 329.98 614.25 L 328.76 612.07 L 327.93 609.88 L 327.64 608.07 L 327.73 606.92 L 328.05 606.05 L 328.59 605.37 L 329.34 604.94 L 330.25 604.76 L 331.40 604.85 L 333.14 605.42 L 335.18 606.57 L 337.15 608.11 L 339.14 610.15 Z" fill="#000000" fill-rule="nonzero" group-id="7" node-id="168" stroke="none" target-height="17.172546" target-width="15.55658" target-x="327.64194" target-y="604.75726"></path><path d="M 331.20 643.60 C 324.10 637.00 318.70 629.20 315.00 620.20 C 314.40 619.00 314.90 617.60 316.10 617.10 C 317.20 616.60 318.50 617.00 319.10 618.00 L 336.90 642.90 C 337.70 644.00 338.80 644.70 340.20 644.90 L 341.30 645.00 C 342.20 645.10 342.90 645.50 343.50 646.20 L 363.50 670.50 C 366.10 673.70 366.40 678.20 364.30 681.70 C 334.50 730.40 301.40 781.20 256.60 817.60 C 255.60 818.40 254.70 818.30 254.00 817.20 C 248.40 809.20 249.40 801.80 256.80 794.80 C 292.90 760.80 321.90 721.50 343.60 677.00 C 344.20 675.70 344.30 674.40 343.80 673.00 L 335.70 650.30 C 334.70 647.70 333.20 645.50 331.20 643.60 Z" fill="#000000" fill-rule="nonzero" node-id="171" stroke="none" target-height="201.80005" target-width="118" target-x="248.4" target-y="616.6"></path><path d="M 622.30 661.50 C 618.00 663.50 615.20 665.70 613.90 668.20 C 607.80 667.60 603.70 665.70 601.70 662.80 C 600.70 661.40 600.60 659.90 601.40 658.30 C 607.80 645.70 616.60 635.60 627.90 627.90 C 631.50 625.50 636.30 626.40 638.80 630.00 C 639.30 630.70 639.70 631.60 639.90 632.40 C 643.70 646.60 631.20 653.50 622.30 661.50 Z" fill="#fcdbd3" fill-rule="nonzero" node-id="173" stroke="none" target-height="42.700012" target-width="43.100037" target-x="600.6" target-y="625.5"></path><path d="M 375.91 645.24 L 378.03 648.33 L 379.44 651.34 L 380.06 653.43 L 380.34 655.30 L 380.33 657.00 L 379.99 658.62 L 379.34 659.94 L 378.38 661.00 L 377.14 661.72 L 375.72 662.08 L 374.05 662.08 L 372.39 661.74 L 370.62 661.08 L 368.71 660.04 L 366.06 658.03 L 363.48 655.31 L 361.35 652.22 L 359.94 649.21 L 359.32 647.13 L 359.04 645.25 L 359.06 643.56 L 359.40 641.93 L 360.05 640.61 L 361.01 639.55 L 362.25 638.83 L 363.67 638.47 L 365.33 638.48 L 366.99 638.81 L 368.77 639.48 L 370.68 640.52 L 373.33 642.52 L 375.91 645.24 Z" fill="#000000" fill-rule="nonzero" group-id="8" node-id="177" stroke="none" target-height="23.614014" target-width="21.3031" target-x="359.0407" target-y="638.4695"></path><path d="M 249.20 644.50 L 267.50 674.70 C 267.80 675.20 267.80 675.90 267.40 676.40 L 244.20 703.00 C 243.60 703.60 242.70 703.60 242.10 703.10 C 241.80 702.80 241.60 702.30 241.60 701.90 L 246.50 645.10 C 246.60 644.30 247.30 643.70 248.10 643.80 C 248.50 643.90 248.90 644.10 249.20 644.50 Z" fill="#fd352c" fill-rule="nonzero" node-id="180" stroke="none" target-height="59.899963" target-width="26.199982" target-x="241.6" target-y="643.7"></path><path d="M 536.40 673.50 C 542.30 667.70 548.00 659.50 554.60 654.70 C 555.40 654.10 556.20 654.30 556.90 655.20 C 557.70 656.30 557.60 657.80 556.60 658.70 C 550.60 664.10 546.70 670.80 544.90 678.70 C 544.60 680.20 543.20 681.30 541.70 681.30 L 539.60 681.30 C 537.10 681.30 535.00 679.30 535.00 676.70 C 535.00 675.60 535.50 674.40 536.40 673.50 Z" fill="#000000" fill-rule="nonzero" node-id="182" stroke="none" target-height="27.200012" target-width="22.700012" target-x="535" target-y="654.1"></path><path d="M 479.65 657.85 L 479.98 658.52 L 479.88 659.96 L 478.93 662.76 L 476.87 667.00 L 473.41 672.92 L 469.33 679.12 L 464.25 686.18 L 458.89 693.03 L 454.07 698.67 L 449.35 703.65 L 445.85 706.81 L 443.43 708.51 L 442.08 709.00 L 441.34 708.87 L 441.01 708.20 L 441.11 706.77 L 442.06 703.97 L 444.12 699.72 L 447.58 693.80 L 451.65 687.60 L 456.74 680.54 L 462.10 673.69 L 466.92 668.05 L 471.64 663.07 L 475.13 659.91 L 477.56 658.21 L 478.91 657.72 L 479.65 657.85 Z" fill="#fcdbd3" fill-rule="nonzero" group-id="9" node-id="186" stroke="none" target-height="51.285645" target-width="38.971252" target-x="441.00854" target-y="657.719"></path><path d="M 622.30 661.50 C 626.30 667.80 625.20 674.70 619.20 682.20 C 615.20 687.10 610.90 687.60 606.30 683.70 C 605.10 682.60 604.70 681.00 605.30 679.50 C 606.80 675.80 609.70 672.00 613.90 668.20 C 615.20 665.70 618.00 663.50 622.30 661.50 Z" fill="#000000" fill-rule="nonzero" node-id="189" stroke="none" target-height="26.099976" target-width="21.599976" target-x="604.7" target-y="661.5"></path><path d="M 413.70 689.30 C 413.70 698.30 410.60 703.70 404.40 705.40 L 388.60 683.10 C 386.40 680.10 387.10 675.90 390.10 673.70 C 392.30 672.10 395.30 672.00 397.60 673.50 C 403.90 677.30 409.20 682.60 413.70 689.30 Z" fill="#000000" fill-rule="nonzero" node-id="191" stroke="none" target-height="33.400024" target-width="27.300018" target-x="386.4" target-y="672"></path><path d="M 582.26 704.53 L 583.30 705.38 L 584.09 706.50 L 584.64 707.93 L 584.94 710.31 L 584.65 713.16 L 583.79 716.05 L 582.30 719.10 L 580.33 721.87 L 578.19 724.00 L 575.82 725.61 L 573.58 726.47 L 572.06 726.67 L 570.70 726.51 L 569.46 726.00 L 568.42 725.15 L 567.63 724.03 L 567.08 722.60 L 566.78 720.22 L 567.07 717.37 L 567.92 714.47 L 569.42 711.42 L 571.39 708.66 L 573.53 706.53 L 575.90 704.92 L 578.13 704.05 L 579.65 703.85 L 581.01 704.02 L 582.26 704.53 Z" fill="#000000" fill-rule="nonzero" group-id="10" node-id="195" stroke="none" target-height="22.818604" target-width="18.161255" target-x="566.7774" target-y="703.8545"></path><path d="M 438.10 718.62 L 438.44 721.06 L 438.17 723.08 L 437.64 724.26 L 436.94 725.04 L 436.04 725.51 L 435.04 725.56 L 434.03 725.25 L 432.98 724.50 L 431.72 722.90 L 430.77 720.63 L 430.43 718.19 L 430.70 716.18 L 431.23 714.99 L 431.93 714.21 L 432.83 713.74 L 433.83 713.69 L 434.84 714.01 L 435.89 714.76 L 437.15 716.35 L 438.10 718.62 Z" fill="#fcdbd3" fill-rule="nonzero" group-id="11" node-id="200" stroke="none" target-height="11.87439" target-width="8.00946" target-x="430.43008" target-y="713.6898"></path><path d="M 423.70 732.80 L 428.90 736.40 C 429.50 736.80 429.60 737.50 429.20 738.10 L 376.00 815.30 C 375.60 815.90 374.90 816.00 374.30 815.60 L 369.00 812.00 C 368.40 811.60 368.30 810.90 368.70 810.30 L 422.00 733.00 C 422.40 732.50 423.20 732.40 423.70 732.80 Z" fill="#fcdbd3" fill-rule="nonzero" node-id="203" stroke="none" target-height="83.599976" target-width="61.30002" target-x="368.3" target-y="732.4"></path><path d="M 491.60 823.10 C 490.10 821.80 487.70 822.00 486.40 823.60 C 486.30 823.70 486.20 823.80 486.20 823.90 C 479.00 834.30 470.10 854.30 456.80 856.80 C 453.10 857.50 449.60 855.00 448.90 851.30 C 448.60 849.60 448.90 847.80 449.90 846.40 C 470.40 814.80 492.70 784.60 516.60 755.70 C 520.00 751.60 523.80 751.10 528.10 754.30 C 542.10 764.80 553.60 777.40 562.80 792.10 C 563.50 793.30 563.50 794.50 562.80 795.70 C 552.10 813.30 539.00 828.90 523.40 842.30 C 520.90 844.50 517.10 844.50 514.50 842.30 L 491.60 823.10 Z M 545.10 797.80 C 547.30 795.20 546.90 791.30 544.30 789.10 L 527.00 774.60 C 524.40 772.40 520.50 772.80 518.30 775.40 C 518.30 775.40 518.30 775.40 518.30 775.40 L 500.10 797.10 C 497.90 799.70 498.30 803.60 500.90 805.80 L 518.20 820.30 C 520.80 822.50 524.70 822.10 526.90 819.50 C 526.90 819.50 526.90 819.50 526.90 819.50 L 545.10 797.80 Z" fill="#000000" fill-rule="nonzero" node-id="205" stroke="none" target-height="106.400024" target-width="114.899994" target-x="448.6" target-y="751.1"></path><path d="M 695.40 790.50 L 697.30 814.00 C 697.60 818.40 695.60 820.80 691.20 821.20 L 675.50 822.50 C 673.70 822.70 672.80 823.60 672.80 825.50 L 675.10 954.80 C 675.10 958.70 678.30 961.80 682.20 961.70 C 682.20 961.70 682.20 961.70 682.20 961.70 L 707.30 961.20 C 709.20 961.20 710.20 962.10 710.40 964.00 L 711.90 984.10 C 712.10 986.20 711.20 986.90 709.20 986.20 C 706.70 985.40 704.80 985.10 703.80 985.40 C 690.00 989.10 676.00 989.80 662.00 987.60 C 660.40 987.40 659.50 986.40 659.50 984.70 L 655.00 780.70 C 657.50 771.60 662.90 763.30 671.20 755.70 C 671.70 755.20 672.50 755.30 672.90 755.80 C 673.10 756.00 673.20 756.20 673.20 756.50 L 677.10 782.50 C 677.40 784.40 678.40 785.80 680.10 786.70 C 685.30 789.20 690.40 790.50 695.40 790.50 Z" fill="#000000" fill-rule="nonzero" node-id="207" stroke="none" target-height="234.59998" target-width="57.099976" target-x="655" target-y="755.2"></path><path d="M 599.39 760.66 L 600.55 761.93 L 601.39 763.39 L 601.92 765.06 L 602.13 766.82 L 602.04 768.67 L 601.62 770.63 L 600.91 772.51 L 599.90 774.36 L 598.54 776.18 L 596.94 777.78 L 595.26 779.06 L 593.51 780.03 L 591.63 780.73 L 589.81 781.09 L 588.04 781.14 L 586.31 780.86 L 584.75 780.25 L 583.32 779.28 L 582.15 778.01 L 581.31 776.55 L 580.78 774.88 L 580.57 773.12 L 580.67 771.27 L 581.09 769.31 L 581.79 767.43 L 582.81 765.58 L 584.16 763.76 L 585.76 762.16 L 587.44 760.88 L 589.20 759.91 L 591.08 759.21 L 592.89 758.85 L 594.66 758.80 L 596.39 759.08 L 597.96 759.69 L 599.39 760.66 Z" fill="#000000" fill-rule="nonzero" group-id="12" node-id="211" stroke="none" target-height="22.345581" target-width="21.557129" target-x="580.5735" target-y="758.79785"></path><path d="M 526.90 774.60 L 544.20 789.10 C 546.80 791.30 547.20 795.20 545.00 797.80 L 526.80 819.50 C 524.60 822.10 520.70 822.50 518.10 820.30 L 500.80 805.80 C 498.20 803.60 497.80 799.70 500.00 797.10 L 518.20 775.40 C 520.40 772.80 524.30 772.50 526.90 774.60 Z" fill="#fcdbd3" fill-rule="nonzero" node-id="214" stroke="none" target-height="50" target-width="49.400024" target-x="497.8" target-y="772.5"></path><path d="M 647.00 787.90 L 648.60 996.30 C 648.60 998.20 649.60 999.10 651.50 999.10 L 711.50 999.10 C 713.60 999.10 714.60 1000.10 714.80 1002.10 L 715.40 1013.20 C 715.60 1015.60 714.40 1016.80 712.10 1016.80 L 640.50 1017.40 C 635.50 1017.40 631.40 1013.70 630.90 1008.70 C 625.00 941.20 623.10 875.10 625.30 810.30 L 647.00 787.90 Z" fill="#000000" fill-rule="nonzero" node-id="216" stroke="none" target-height="229.5" target-width="92.5" target-x="623.1" target-y="787.9"></path><path d="M 361.20 824.50 L 365.20 827.10 C 366.20 827.70 366.40 829.00 365.80 830.00 L 356.00 845.20 C 355.40 846.20 354.10 846.40 353.10 845.80 L 349.10 843.20 C 348.10 842.60 347.90 841.30 348.50 840.30 L 358.30 825.10 C 359.00 824.10 360.30 823.80 361.20 824.50 Z" fill="#fcdbd3" fill-rule="nonzero" node-id="218" stroke="none" target-height="22.600037" target-width="18.5" target-x="347.9" target-y="823.8"></path><path d="M 611.80 824.20 C 609.30 833.70 608.00 843.30 607.70 853.00 C 606.00 920.40 608.20 978.20 614.20 1026.30 C 615.30 1035.50 621.40 1039.30 632.30 1037.70 C 659.50 1033.80 686.90 1031.50 714.40 1030.80 C 716.10 1030.70 717.00 1031.50 717.20 1033.20 L 719.70 1053.70 C 719.90 1055.20 718.80 1056.60 717.30 1056.80 C 717.30 1056.80 717.20 1056.80 717.20 1056.80 C 679.90 1059.80 635.10 1067.50 598.40 1062.20 C 596.80 1062.00 596.00 1061.10 595.90 1059.50 L 582.70 855.20 L 611.80 824.20 Z" fill="#000000" fill-rule="nonzero" node-id="220" stroke="none" target-height="243.29999" target-width="137.20001" target-x="582.7" target-y="824.2"></path><path d="M 292.20 855.50 C 290.90 846.00 292.40 837.20 296.50 829.00 C 298.20 825.60 302.40 824.20 305.80 825.90 C 308.20 827.10 309.70 829.60 309.70 832.30 C 309.40 843.30 310.90 853.70 314.20 863.70 C 314.70 865.30 314.20 865.90 312.60 865.30 L 295.50 859.50 C 293.50 858.80 292.40 857.40 292.20 855.50 Z" fill="#d44244" fill-rule="nonzero" node-id="222" stroke="none" target-height="41.700012" target-width="23.800018" target-x="290.9" target-y="824.2"></path><path d="M 699.00 949.20 L 692.30 949.20 C 690.60 949.20 689.80 948.40 689.70 946.70 L 686.20 835.80 C 686.10 834.20 686.90 833.20 688.40 832.80 L 693.80 831.30 C 695.30 830.90 696.70 831.80 697.10 833.20 C 697.10 833.30 697.20 833.50 697.20 833.60 C 700.00 860.70 702.00 887.80 703.30 914.80 C 703.80 925.10 708.40 935.50 708.60 946.80 C 708.60 948.30 708.00 949.40 706.60 950.00 C 705.20 950.60 703.70 950.60 702.30 949.90 C 701.20 949.40 700.10 949.20 699.00 949.20 Z" fill="#000000" fill-rule="nonzero" node-id="224" stroke="none" target-height="119.69995" target-width="22.5" target-x="686.1" target-y="830.9"></path><path d="M 351.30 848.80 C 352.40 849.60 352.70 851.10 351.90 852.20 L 351.60 852.60 C 341.40 866.90 331.40 877.30 329.30 875.80 L 326.20 873.60 C 324.10 872.00 330.70 859.20 340.90 845.00 L 341.20 844.60 C 342.00 843.50 343.50 843.20 344.60 844.00 C 344.60 844.00 344.60 844.00 344.60 844.00 L 351.30 848.80 Z" fill="#fcdbd3" fill-rule="nonzero" node-id="226" stroke="none" target-height="34.099976" target-width="28.600006" target-x="324.1" target-y="843.2"></path><path d="M 574.70 862.90 C 573.70 925.30 575.00 987.50 578.70 1049.60 C 579.10 1055.50 578.40 1067.60 581.00 1075.30 C 582.10 1078.50 585.00 1080.60 588.40 1080.60 C 631.50 1080.70 674.50 1078.10 717.20 1072.90 C 718.50 1072.70 719.20 1073.30 719.40 1074.50 C 722.70 1093.20 733.90 1152.90 706.30 1146.50 C 704.70 1146.10 703.00 1146.50 701.80 1147.50 C 694.10 1153.80 685.30 1155.20 675.50 1151.90 C 673.80 1151.30 672.90 1151.90 673.00 1153.80 L 674.60 1294.80 C 674.60 1299.00 676.70 1302.90 680.20 1305.20 L 692.60 1313.50 C 696.60 1316.20 697.70 1321.60 695.00 1325.70 C 693.30 1328.20 690.50 1329.60 687.50 1329.60 L 621.80 1327.70 C 613.80 1327.50 607.30 1321.00 607.00 1313.00 L 600.60 1151.20 C 600.50 1148.90 599.40 1148.10 597.20 1148.70 C 578.00 1154.10 568.60 1149.30 554.30 1140.40 C 552.90 1139.50 551.50 1139.60 550.10 1140.50 C 530.20 1154.50 498.90 1151.50 486.10 1129.30 C 483.20 1124.30 481.00 1115.40 479.60 1102.50 C 474.80 1061.00 471.60 1019.30 469.80 977.60 L 470.50 958.20 C 470.60 956.70 471.40 955.40 472.60 954.70 C 488.60 945.60 505.80 934.80 507.90 914.90 C 508.00 913.50 508.70 912.20 509.70 911.30 C 519.50 902.60 530.40 895.60 542.40 890.30 C 543.30 889.90 544.00 889.10 544.10 888.10 L 548.00 862.70 C 548.30 861.20 549.70 860.20 551.20 860.40 C 551.70 860.50 552.10 860.70 552.50 861.00 C 558.60 866.10 566.00 866.80 574.70 862.90 Z" fill="#000000" fill-rule="nonzero" node-id="228" stroke="none" target-height="469.39996" target-width="264.10004" target-x="469.8" target-y="860.2"></path><path d="M 514.60 884.60 C 515.70 884.20 516.90 884.70 517.40 885.70 L 517.70 886.40 C 520.00 892.00 519.80 897.50 517.20 898.60 L 516.20 899.00 C 513.60 900.10 509.50 896.40 507.20 890.70 L 506.90 890.00 C 506.40 888.90 506.90 887.70 508.00 887.20 C 508.00 887.20 508.00 887.20 508.00 887.20 L 514.60 884.60 Z" fill="#fcdbd3" fill-rule="nonzero" node-id="230" stroke="none" target-height="15.899963" target-width="13.600006" target-x="506.4" target-y="884.2"></path><path d="M 461.92 895.77 L 464.10 896.44 L 465.92 897.37 L 467.44 898.58 L 468.46 899.88 L 469.03 901.34 L 469.03 902.79 L 468.45 904.12 L 467.34 905.22 L 465.87 906.00 L 463.99 906.49 L 461.96 906.61 L 459.69 906.34 L 457.51 905.68 L 455.70 904.74 L 454.17 903.54 L 453.15 902.23 L 452.58 900.77 L 452.59 899.32 L 453.17 898.00 L 454.27 896.89 L 455.74 896.11 L 457.62 895.62 L 459.65 895.50 L 461.92 895.77 Z" fill="#fcdbd3" fill-rule="nonzero" group-id="13" node-id="234" stroke="none" target-height="11.113953" target-width="16.450317" target-x="452.58057" target-y="895.49927"></path><path d="M 455.51 920.22 L 455.28 921.53 L 454.56 922.72 L 453.27 923.85 L 451.72 924.67 L 449.86 925.24 L 447.61 925.53 L 445.34 925.42 L 443.44 924.99 L 441.83 924.29 L 440.45 923.26 L 439.65 922.13 L 439.32 920.85 L 439.56 919.54 L 440.27 918.35 L 441.56 917.22 L 443.11 916.40 L 444.97 915.83 L 447.22 915.54 L 449.49 915.65 L 451.39 916.08 L 453.00 916.78 L 454.38 917.81 L 455.18 918.94 L 455.51 920.22 Z" fill="#fcdbd3" fill-rule="nonzero" group-id="14" node-id="239" stroke="none" target-height="9.993042" target-width="16.18866" target-x="439.32095" target-y="915.53796"></path><path d="M 245.30 1058.50 C 242.30 1059.10 240.40 1062.10 241.10 1065.10 C 241.70 1067.70 244.00 1069.50 246.60 1069.50 L 259.70 1069.50 C 261.40 1069.50 262.70 1068.10 262.70 1066.50 C 262.70 1066.50 262.70 1066.50 262.70 1066.50 L 261.00 962.70 C 260.90 960.60 259.90 959.30 257.80 959.10 L 241.70 957.00 C 240.10 956.80 239.30 955.90 239.30 954.30 L 239.40 929.60 C 239.40 928.00 240.20 927.20 241.90 927.20 C 262.10 927.50 273.10 933.50 274.60 954.20 C 277.70 997.10 280.60 1040.60 283.40 1084.50 C 283.60 1087.20 281.50 1089.50 278.80 1089.70 C 278.80 1089.70 278.80 1089.70 278.70 1089.70 L 241.80 1091.80 C 240.30 1091.90 239.60 1091.20 239.60 1089.80 L 238.60 972.00 C 238.60 970.50 239.30 969.80 240.80 969.80 C 247.90 970.20 250.90 974.80 250.20 981.80 C 248.00 1005.90 248.80 1029.90 252.70 1053.80 C 253.00 1055.80 252.20 1057.10 250.20 1057.50 L 245.30 1058.50 Z" fill="#000000" fill-rule="nonzero" node-id="242" stroke="none" target-height="164.70001" target-width="45" target-x="238.6" target-y="927.2"></path><path d="M 432.33 941.11 L 433.40 941.62 L 434.25 942.42 L 434.89 943.56 L 435.25 944.85 L 435.32 946.27 L 435.07 947.86 L 434.48 949.36 L 433.71 950.55 L 432.76 951.48 L 431.62 952.14 L 430.49 952.41 L 429.31 952.31 L 428.24 951.80 L 427.40 951.00 L 426.75 949.86 L 426.39 948.58 L 426.32 947.16 L 426.57 945.57 L 427.16 944.07 L 427.93 942.87 L 428.89 941.94 L 430.02 941.28 L 431.15 941.01 L 432.33 941.11 Z" fill="#fcdbd3" fill-rule="nonzero" group-id="15" node-id="246" stroke="none" target-height="11.396545" target-width="8.993774" target-x="426.32452" target-y="941.0144"></path><path d="M 318.80 953.70 C 321.20 960.90 321.40 967.00 319.50 971.90 C 317.70 965.50 317.50 959.40 318.80 953.70 Z" fill="#fd352c" fill-rule="nonzero" node-id="249" stroke="none" target-height="18.200012" target-width="3.899994" target-x="317.5" target-y="953.7"></path><path d="M 414.90 959.50 C 415.50 958.30 416.80 957.80 418.10 958.10 C 426.20 960.50 424.60 967.80 420.20 973.00 C 412.10 982.60 404.80 992.80 398.40 1003.70 C 397.70 1004.90 396.70 1005.20 395.40 1004.70 C 394.90 1004.50 394.50 1004.40 394.00 1004.20 C 393.50 1004.00 393.20 1003.50 393.40 1003.00 C 393.40 1003.00 393.40 1002.90 393.40 1002.90 L 414.90 959.50 Z" fill="#fcdbd3" fill-rule="nonzero" node-id="251" stroke="none" target-height="47.400024" target-width="33" target-x="393.2" target-y="957.8"></path></svg>